# xmcd CD database file
#
# Track frame offsets:
#	150
#	11298
#	22913
#	34335
#	45994
#	56786
#	67265
#	79093
#	90547
#	101836
#	113461
#	124948
#	137219
#	149221
#	160936
#	172422
#
# Disc length: 2446 seconds
#
# Revision: 0
# Processed by: cddbd v1.5.1PL2 Copyright (c) Steve Scherf et al.
# Submitted via: CDex 1.51
#
DISCID=e3098c10
DTITLE=David Thekwane and White House - Legends Of Africa Disc 1
DYEAR=2002
DGENRE=Jazz
TTITLE0=White House
TTITLE1=Phefeni Station
TTITLE2=Rock Phata Special
TTITLE3=Stop Street Jive
TTITLE4=Chillies No 14
TTITLE5=Mpala Mpala No 2
TTITLE6=Lekker Krap
TTITLE7=Amadolo
TTITLE8=Fast Moving
TTITLE9=Mathwethwe Special
TTITLE10=Fast Move No 3
TTITLE11=Dlamini Special
TTITLE12=No Dice
TTITLE13=Brakpan No 5
TTITLE14=Benoni Special No 17
TTITLE15=Rock Phata No 19
EXTD=YEAR: 2002
EXTT0=
EXTT1=
EXTT2=
EXTT3=
EXTT4=
EXTT5=
EXTT6=
EXTT7=
EXTT8=
EXTT9=
EXTT10=
EXTT11=
EXTT12=
EXTT13=
EXTT14=
EXTT15=
PLAYORDER=
